<svg width="512" height="512" viewBox="0 0 512 512" fill="none" xmlns="http://www.w3.org/2000/svg">
<rect width="512" height="512" fill="white"/>
<path d="M383.365 462C361.641 462 343.084 458.838 327.696 452.513C312.609 446.49 297.824 438.358 283.341 428.118C271.574 419.686 260.41 411.554 249.849 403.724C239.289 396.194 226.616 386.406 211.831 374.36C201.27 365.626 191.464 359.301 182.412 355.386C173.662 351.772 166.119 348.459 159.782 345.447C147.411 339.725 135.644 332.798 124.48 324.667C113.316 316.535 103.359 306.898 94.6084 295.754C86.1599 284.611 79.371 271.811 74.2416 257.355C69.4138 242.598 67 226.034 67 207.662C67 187.183 70.319 167.607 76.9571 148.934C83.5952 129.961 93.4015 113.095 106.376 98.3377C119.35 83.5804 135.493 71.8348 154.804 63.1009C174.115 54.367 196.292 50 221.336 50C241.25 50 260.259 53.614 278.363 60.8421C296.467 67.769 312.458 77.8582 326.338 91.1097C340.218 104.06 351.231 119.721 359.378 138.092C367.524 156.162 371.598 176.341 371.598 198.627C371.598 221.516 367.374 243.351 358.925 264.132C350.778 284.912 338.558 302.982 322.265 318.342C305.971 333.702 285.755 344.544 261.617 350.868C259.203 351.471 257.996 352.525 257.996 354.031C257.996 355.537 258.599 356.892 259.806 358.096C268.557 367.433 277.458 376.016 286.51 383.846C295.863 391.978 306.122 400.11 317.286 408.241C332.373 419.083 346.403 426.462 359.378 430.377C372.654 434.594 388.042 436.702 405.543 436.702C410.974 436.702 415.952 436.401 420.478 435.798C425.306 435.196 428.776 434.443 430.888 433.539C432.397 432.937 433.905 432.485 435.414 432.184C436.923 431.883 438.28 431.732 439.487 431.732C442.806 431.732 444.466 432.937 444.466 435.346C444.466 438.057 443.862 440.165 442.655 441.671C441.75 443.177 439.638 444.984 436.319 447.092C427.871 452.212 418.97 455.977 409.616 458.386C400.564 460.795 391.814 462 383.365 462ZM224.051 338.219C258.75 338.219 284.699 327.528 301.898 306.145C319.398 284.762 328.148 256.301 328.148 220.763C328.148 199.982 325.735 180.406 320.907 162.035C316.079 143.664 308.838 127.551 299.182 113.697C289.829 99.5424 278.061 88.5497 263.88 80.7193C249.698 72.8889 233.103 68.9737 214.094 68.9737C179.998 68.9737 154.2 79.5146 136.7 100.596C119.2 121.678 110.449 149.838 110.449 185.075C110.449 206.156 112.712 225.883 117.238 244.254C122.066 262.626 129.157 278.889 138.51 293.044C148.166 307.199 160.084 318.342 174.265 326.474C188.447 334.304 205.042 338.219 224.051 338.219Z" fill="black"/>
</svg>
